HIERARCHY
ROOT Hips
{
	OFFSET 0.000000 0.000000 0.000000
	CHANNELS 6 Xposition Yposition Zposition Xrotation Yrotation Zrotation
	JOINT LeftUpLeg_virtual
	{
		OFFSET 0.000000 0.000000 0.000000
		CHANNELS 3 Xrotation Yrotation Zrotation
		JOINT LeftUpLeg
		{
			OFFSET 13.026900 -6.336304 -1.092800
			CHANNELS 3 Xrotation Yrotation Zrotation
			JOINT LeftLeg
			{
				OFFSET 0.524474 -46.096886 9.782700
				CHANNELS 3 Xrotation Yrotation Zrotation
				JOINT LeftFoot
				{
					OFFSET -0.524474 -53.427422 -12.948200
					CHANNELS 3 Xrotation Yrotation Zrotation
					JOINT LeftToeBase
					{
						OFFSET 0.192200 -14.009700 16.364100
						CHANNELS 3 Xrotation Yrotation Zrotation
						JOINT LeftToe_End
						{
							OFFSET -1.784700 -0.561700 9.474800
							CHANNELS 3 Xrotation Yrotation Zrotation
							End Site
							{
								OFFSET 0 0 0
							}
						}
					}
				}
			}
		}
	}
	JOINT RightUpLeg_virtual
	{
		OFFSET 0.000000 0.000000 0.000000
		CHANNELS 3 Xrotation Yrotation Zrotation
		JOINT RightUpLeg
		{
			OFFSET -12.883000 -6.336304 -1.092800
			CHANNELS 3 Xrotation Yrotation Zrotation
			JOINT RightLeg
			{
				OFFSET -0.524587 -46.096825 9.782800
				CHANNELS 3 Xrotation Yrotation Zrotation
				JOINT RightFoot
				{
					OFFSET 0.524587 -53.427383 -12.948300
					CHANNELS 3 Xrotation Yrotation Zrotation
					JOINT RightToeBase
					{
						OFFSET -0.192200 -14.009700 16.364100
						CHANNELS 3 Xrotation Yrotation Zrotation
						JOINT RightToe_End
						{
							OFFSET 1.784700 -0.561700 9.474800
							CHANNELS 3 Xrotation Yrotation Zrotation
							End Site
							{
								OFFSET 0 0 0
							}
						}
					}
				}
			}
		}
	}
	JOINT Spine_virtual
	{
		OFFSET 0.000000 0.000000 0.000000
		CHANNELS 3 Xrotation Yrotation Zrotation
		JOINT Spine
		{
			OFFSET 0.072000 7.257294 -0.789700
			CHANNELS 3 Xrotation Yrotation Zrotation
			JOINT Spine1
			{
				OFFSET 0.000000 12.508769 -0.658067
				CHANNELS 3 Xrotation Yrotation Zrotation
				JOINT Spine1_split
				{
					OFFSET 0.000000 12.508769 -0.658067
					CHANNELS 3 Xrotation Yrotation Zrotation
					JOINT Spine2
					{
						OFFSET 0.000000 12.508769 -0.658067
						CHANNELS 3 Xrotation Yrotation Zrotation
						JOINT Neck_virtual
						{
							OFFSET 0.000000 0.000000 0.000000
							CHANNELS 3 Xrotation Yrotation Zrotation
							JOINT Neck
							{
								OFFSET 0.000000 14.033295 7.520400
								CHANNELS 3 Xrotation Yrotation Zrotation
								JOINT Head
								{
									OFFSET 0.000000 8.198502 5.703100
									CHANNELS 3 Xrotation Yrotation Zrotation
									JOINT HeadTop_End
									{
										OFFSET 0.000000 17.760803 13.332701
										CHANNELS 3 Xrotation Yrotation Zrotation
										End Site
										{
											OFFSET 0 0 0
										}
									}
								}
							}
						}
						JOINT LeftShoulder_virtual
						{
							OFFSET 0.000000 0.000000 0.000000
							CHANNELS 3 Xrotation Yrotation Zrotation
							JOINT LeftShoulder
							{
								OFFSET 6.292450 5.785301 -0.669000
								CHANNELS 3 Xrotation Yrotation Zrotation
								JOINT LeftShoulder_split
								{
									OFFSET 6.292450 5.785301 -0.669000
									CHANNELS 3 Xrotation Yrotation Zrotation
									JOINT LeftArm
									{
										OFFSET 13.907140 -6.093903 1.965100
										CHANNELS 3 Xrotation Yrotation Zrotation
										JOINT LeftForeArm
										{
											OFFSET 34.140198 0.000000 0.000000
											CHANNELS 3 Xrotation Yrotation Zrotation
											JOINT LeftHand
											{
												OFFSET 40.960209 0.000000 0.000000
												CHANNELS 3 Xrotation Yrotation Zrotation
												End Site
												{
													OFFSET 0 0 0
												}
											}
										}
									}
								}
							}
						}
						JOINT RightShoulder_virtual
						{
							OFFSET 0.000000 0.000000 0.000000
							CHANNELS 3 Xrotation Yrotation Zrotation
							JOINT RightShoulder
							{
								OFFSET -6.292450 5.785301 -0.669000
								CHANNELS 3 Xrotation Yrotation Zrotation
								JOINT RightShoulder_split
								{
									OFFSET -6.292450 5.785301 -0.669000
									CHANNELS 3 Xrotation Yrotation Zrotation
									JOINT RightArm
									{
										OFFSET -13.907140 -6.093903 1.965100
										CHANNELS 3 Xrotation Yrotation Zrotation
										JOINT RightForeArm
										{
											OFFSET -34.140198 0.000000 0.000000
											CHANNELS 3 Xrotation Yrotation Zrotation
											JOINT RightHand
											{
												OFFSET -40.960209 0.000000 0.000000
												CHANNELS 3 Xrotation Yrotation Zrotation
												End Site
												{
													OFFSET 0 0 0
												}
											}
										}
									}
								}
							}
						}
					}
				}
			}
		}
	}
}
MOTION
Frames: 8
Frame Time: 0.03333333
5.091010 121.899857 -13.825443 0.000000 0.000000 0.000000 -0.641289 8.705829 -2.238858 -14.946732 19.660614 12.486414 9.712115 2.958405 3.342463 3.828654 1.052568 -16.185212 -2.452023 -2.720328 0.246607 0.000000 0.000000 0.000000 -0.142753 8.670380 -2.369192 4.228553 -8.876337 1.702566 -2.518811 -3.021069 -0.558293 -4.124413 -7.027142 10.191718 -2.911938 0.054346 -4.772297 0.000000 0.000000 0.000000 -0.695616 11.072985 -2.578964 2.813468 -0.517701 4.263778 -0.338712 0.615713 1.916837 0.130802 -0.069063 -0.048705 0.000000 0.000000 0.000000 0.281560 3.250815 1.632749 12.637573 2.660434 1.762218 -9.693771 -18.898707 -14.219726 0.000000 0.000000 0.000000 -0.546076 1.480626 0.995239 -1.386054 -17.468699 -14.889824 -0.550773 -0.152114 -3.773997 13.900259 -22.427343 -64.943173 -0.058141 -6.139990 1.926917 0.000000 0.000000 0.000000 0.594991 2.093183 1.740386 0.127736 9.254485 14.983666 -1.930650 0.673790 1.027835 12.166730 26.997694 58.356972 -6.489343 2.715727 1.781935 0.000000 0.000000 0.000000 
5.111650 121.894699 -13.774845 0.000000 0.000000 0.000000 -0.683246 8.560074 -2.256778 -14.872383 19.629646 12.475867 9.788270 2.985008 3.333144 3.799606 1.169740 -16.162114 -2.456238 -2.727807 0.246690 0.000000 0.000000 0.000000 -0.162946 8.608822 -2.376955 4.279260 -8.822603 1.716825 -2.560204 -2.982820 -0.571392 -4.060573 -7.149868 10.165861 -2.741477 0.038639 -4.706892 0.000000 0.000000 0.000000 -0.772214 10.961591 -2.602773 2.857636 -0.536380 4.254818 -0.333170 0.606570 1.926362 0.134386 -0.071592 -0.052162 0.000000 0.000000 0.000000 0.272717 3.249442 1.642476 12.625309 2.666444 1.779037 -9.666370 -18.891368 -14.153325 0.000000 0.000000 0.000000 -0.536770 1.471261 1.006925 -1.384397 -17.507207 -14.905575 -0.591267 -0.201784 -3.744425 13.855678 -22.416131 -64.946875 -0.097159 -6.226053 1.903382 0.000000 0.000000 0.000000 0.585884 2.080376 1.747469 0.117598 9.173706 14.975094 -1.932844 0.686319 1.083898 12.299433 26.969731 58.242082 -6.474853 2.649594 1.806573 0.000000 0.000000 0.000000 
5.124376 121.867462 -13.732922 0.000000 0.000000 0.000000 -0.770147 8.293902 -2.288035 -14.730816 19.631900 12.503346 9.925622 3.039969 3.331520 3.695072 1.389267 -16.170440 -2.490306 -2.735541 0.236381 0.000000 0.000000 0.000000 -0.234353 8.420723 -2.396282 4.267368 -8.720686 1.729823 -2.509492 -2.835413 -0.581227 -3.978445 -7.329670 10.214937 -2.525025 0.033017 -4.778987 0.000000 0.000000 0.000000 -0.881583 10.767345 -2.643038 2.928164 -0.547810 4.250851 -0.325274 0.584264 1.942328 0.136708 -0.068547 -0.059415 0.000000 0.000000 0.000000 0.265339 3.235452 1.651034 12.615367 2.688765 1.819160 -9.690140 -18.846672 -14.036339 0.000000 0.000000 0.000000 -0.524642 1.446849 1.026191 -1.380732 -17.526187 -14.885562 -0.621235 -0.239023 -3.765141 13.788796 -22.358599 -64.952886 -0.053041 -6.260895 1.931002 0.000000 0.000000 0.000000 0.572790 2.051964 1.757368 0.128114 9.127195 14.965267 -2.002430 0.750850 1.174771 12.603459 26.965483 58.008394 -6.444753 2.601397 1.815766 0.000000 0.000000 0.000000 
5.111980 121.826332 -13.695011 0.000000 0.000000 0.000000 -0.902656 7.936805 -2.325800 -14.546706 19.659914 12.552639 10.102464 3.116777 3.332734 3.536308 1.689994 -16.205575 -2.541815 -2.743017 0.221753 0.000000 0.000000 0.000000 -0.344046 8.131934 -2.421191 4.217251 -8.579631 1.749665 -2.397700 -2.587424 -0.593240 -3.918371 -7.547489 10.306635 -2.245915 0.037144 -4.978787 0.000000 0.000000 0.000000 -1.021830 10.526599 -2.691838 3.019314 -0.547096 4.250545 -0.317183 0.552650 1.961056 0.136610 -0.058173 -0.061969 0.000000 0.000000 0.000000 0.260561 3.210130 1.655796 12.601196 2.722929 1.890460 -9.763755 -18.779923 -13.856058 0.000000 0.000000 0.000000 -0.511244 1.410634 1.048081 -1.378318 -17.529650 -14.831356 -0.667805 -0.242250 -3.826187 13.723730 -22.222647 -64.968766 0.056473 -6.237442 2.000939 0.000000 0.000000 0.000000 0.557349 2.010935 1.768342 0.155086 9.128081 14.944478 -2.084108 0.853204 1.276748 13.058702 27.049241 57.675142 -6.390512 2.568795 1.796230 0.000000 0.000000 0.000000 
5.085066 121.771996 -13.673969 0.000000 0.000000 0.000000 -1.063765 7.530678 -2.364807 -14.331697 19.700530 12.600083 10.295339 3.214576 3.333887 3.354607 2.049598 -16.255439 -2.587962 -2.750637 0.204821 0.000000 0.000000 0.000000 -0.486971 7.776480 -2.447066 4.140140 -8.408993 1.774995 -2.246058 -2.258043 -0.613679 -3.900233 -7.800534 10.399983 -1.899654 0.045956 -5.281218 0.000000 0.000000 0.000000 -1.191840 10.244680 -2.739554 3.127326 -0.529957 4.252062 -0.306454 0.518279 1.978338 0.132959 -0.049448 -0.058259 0.000000 0.000000 0.000000 0.256360 3.177783 1.651999 12.575852 2.757973 2.003829 -9.867165 -18.739765 -13.602995 0.000000 0.000000 0.000000 -0.498361 1.365037 1.068531 -1.378989 -17.525924 -14.743370 -0.716249 -0.227527 -3.912880 13.670311 -21.995972 -64.984735 0.206339 -6.191135 2.096758 0.000000 0.000000 0.000000 0.542974 1.962188 1.776449 0.196535 9.187761 14.895620 -2.178212 0.940223 1.377665 13.654152 27.269800 57.235606 -6.304504 2.581086 1.734410 0.000000 0.000000 0.000000 
5.051313 121.716537 -13.684528 0.000000 0.000000 0.000000 -1.234319 7.113216 -2.395742 -14.101317 19.736685 12.629269 10.478022 3.331941 3.333192 3.178353 2.437936 -16.315273 -2.629606 -2.757938 0.188200 0.000000 0.000000 0.000000 -0.654688 7.394250 -2.463266 4.051580 -8.218832 1.798590 -2.064213 -1.865087 -0.645510 -3.912161 -8.075457 10.496461 -1.528966 0.052181 -5.657216 0.000000 0.000000 0.000000 -1.384304 9.953969 -2.778252 3.251542 -0.500347 4.252454 -0.291860 0.483364 1.989450 0.130005 -0.053033 -0.053841 0.000000 0.000000 0.000000 0.252414 3.142212 1.638419 12.537368 2.785800 2.160430 -9.971158 -18.790971 -13.275081 0.000000 0.000000 0.000000 -0.488759 1.311814 1.082062 -1.383725 -17.522271 -14.625318 -0.750673 -0.205841 -3.995268 13.641796 -21.655190 -65.003402 0.369947 -6.150593 2.201549 0.000000 0.000000 0.000000 0.528091 1.906600 1.778619 0.246275 9.312239 14.819571 -2.269871 1.005380 1.465263 14.350272 27.617829 56.714486 -6.184723 2.676482 1.623970 0.000000 0.000000 0.000000 
5.015982 121.678619 -13.700169 0.000000 0.000000 0.000000 -1.404185 6.695118 -2.410544 -13.849652 19.775344 12.640611 10.628544 3.467744 3.329169 3.024881 2.826733 -16.379147 -2.673051 -2.765577 0.169490 0.000000 0.000000 0.000000 -0.834684 6.998963 -2.464747 3.946365 -8.009620 1.813372 -1.846973 -1.408752 -0.685612 -3.903016 -8.338873 10.619109 -1.210087 0.053291 -6.077569 0.000000 0.000000 0.000000 -1.590477 9.641650 -2.805212 3.387142 -0.461558 4.245733 -0.272029 0.448057 1.991699 0.126936 -0.068526 -0.055018 0.000000 0.000000 0.000000 0.247256 3.104357 1.615307 12.491280 2.806445 2.349776 -10.053001 -18.986512 -12.884178 0.000000 0.000000 0.000000 -0.482347 1.251741 1.086621 -1.391285 -17.526752 -14.482214 -0.796071 -0.182986 -4.043084 13.635918 -21.202560 -65.033653 0.522001 -6.126959 2.297295 0.000000 0.000000 0.000000 0.511064 1.845210 1.773288 0.306773 9.496516 14.724375 -2.361364 1.073490 1.557235 15.051230 28.019536 56.151723 -6.039718 2.924296 1.473523 0.000000 0.000000 0.000000 
4.982349 121.660019 -13.705784 0.000000 0.000000 0.000000 -1.563676 6.260221 -2.409243 -13.573871 19.824107 12.641753 10.739208 3.617456 3.319804 2.907590 3.192000 -16.446564 -2.714916 -2.774299 0.143018 0.000000 0.000000 0.000000 -1.010124 6.605901 -2.453725 3.828403 -7.790277 1.819829 -1.593718 -0.887849 -0.731918 -3.877452 -8.578042 10.755413 -0.949010 0.045134 -6.510235 0.000000 0.000000 0.000000 -1.792700 9.297633 -2.819364 3.527055 -0.417762 4.233357 -0.248917 0.412630 1.986230 0.125930 -0.088645 -0.058664 0.000000 0.000000 0.000000 0.236116 3.062212 1.587939 12.440829 2.824007 2.549546 -10.107544 -19.338209 -12.454693 0.000000 0.000000 0.000000 -0.481612 1.184951 1.081232 -1.399921 -17.543056 -14.326279 -0.824526 -0.184198 -4.066817 13.654149 -20.674498 -65.078992 0.661511 -6.126758 2.374757 0.000000 0.000000 0.000000 0.491790 1.779086 1.760044 0.372701 9.734813 14.627636 -2.441323 1.108030 1.680535 15.598721 28.373716 55.620652 -5.877908 3.378230 1.295893 0.000000 0.000000 0.000000 
